<mxfile host="app.diagrams.net" agent="Mozilla/5.0 (Windows NT 10.0; Win64; x64) AppleWebKit/537.36 (KHTML, like Gecko) Chrome/129.0.0.0 Safari/537.36" version="24.8.0">
  <diagram name="Page-1" id="NLsbyPLDBp22tIcNtz7b">
    <mxGraphModel dx="1498" dy="1097" grid="1" gridSize="10" guides="1" tooltips="1" connect="1" arrows="1" fold="1" page="1" pageScale="1" pageWidth="850" pageHeight="1100" math="0" shadow="0">
      <root>
        <mxCell id="0" />
        <mxCell id="1" parent="0" />
        <mxCell id="epsHbpwaY9G1va5y-a78-1" value="" style="strokeWidth=1;shadow=0;dashed=0;align=center;html=1;shape=mxgraph.mockup.containers.browserWindow;rSize=0;strokeColor=#666666;strokeColor2=#008cff;strokeColor3=#c4c4c4;mainText=,;recursiveResize=0;" parent="1" vertex="1">
          <mxGeometry x="40" y="120" width="767.5" height="940" as="geometry" />
        </mxCell>
        <mxCell id="epsHbpwaY9G1va5y-a78-2" value="DineScout" style="strokeWidth=1;shadow=0;dashed=0;align=center;html=1;shape=mxgraph.mockup.containers.anchor;fontSize=17;fontColor=#666666;align=left;whiteSpace=wrap;" parent="epsHbpwaY9G1va5y-a78-1" vertex="1">
          <mxGeometry x="60" y="12" width="110" height="26" as="geometry" />
        </mxCell>
        <mxCell id="epsHbpwaY9G1va5y-a78-3" value="https://www.dinescout.com/account_follows" style="strokeWidth=1;shadow=0;dashed=0;align=center;html=1;shape=mxgraph.mockup.containers.anchor;rSize=0;fontSize=17;fontColor=#666666;align=left;" parent="epsHbpwaY9G1va5y-a78-1" vertex="1">
          <mxGeometry x="130" y="60" width="250" height="26" as="geometry" />
        </mxCell>
        <mxCell id="epsHbpwaY9G1va5y-a78-4" value="" style="strokeWidth=1;shadow=0;dashed=0;align=center;html=1;shape=mxgraph.mockup.forms.rrect;rSize=0;strokeColor=#999999;fillColor=#ffffff;" parent="epsHbpwaY9G1va5y-a78-1" vertex="1">
          <mxGeometry x="180" y="110" width="420" height="830" as="geometry" />
        </mxCell>
        <mxCell id="epsHbpwaY9G1va5y-a78-5" value="" style="ellipse;whiteSpace=wrap;html=1;aspect=fixed;" parent="epsHbpwaY9G1va5y-a78-4" vertex="1">
          <mxGeometry x="163.98000000000002" y="61.303030303030305" width="80" height="80" as="geometry" />
        </mxCell>
        <mxCell id="epsHbpwaY9G1va5y-a78-6" value="Logo" style="text;strokeColor=none;fillColor=none;html=1;fontSize=24;fontStyle=1;verticalAlign=middle;align=center;" parent="epsHbpwaY9G1va5y-a78-4" vertex="1">
          <mxGeometry x="100" y="78.61" width="210" height="45.39" as="geometry" />
        </mxCell>
        <mxCell id="epsHbpwaY9G1va5y-a78-9" value="&lt;span style=&quot;font-size: 16px;&quot;&gt;Restaurant&#39;s Following&lt;/span&gt;" style="strokeWidth=1;shadow=0;dashed=0;align=center;html=1;shape=mxgraph.mockup.forms.anchor;fontSize=12;fontColor=#666666;align=left;resizeWidth=1;spacingLeft=0;" parent="epsHbpwaY9G1va5y-a78-4" vertex="1">
          <mxGeometry x="117" y="111" width="210" height="130" as="geometry" />
        </mxCell>
        <mxCell id="epsHbpwaY9G1va5y-a78-24" value="" style="strokeWidth=1;shadow=0;dashed=0;align=center;html=1;shape=mxgraph.mockup.forms.rrect;rSize=0;strokeColor=#999999;fontColor=#666666;align=left;spacingLeft=5;resizeWidth=1;" parent="epsHbpwaY9G1va5y-a78-4" vertex="1">
          <mxGeometry x="52.5" y="203" width="315" height="260" as="geometry" />
        </mxCell>
        <mxCell id="epsHbpwaY9G1va5y-a78-25" value="&lt;span style=&quot;font-size: 16px;&quot;&gt;Restaurant&lt;/span&gt;" style="strokeWidth=1;shadow=0;dashed=0;align=center;html=1;shape=mxgraph.mockup.forms.anchor;fontSize=12;fontColor=#666666;align=left;resizeWidth=1;spacingLeft=0;" parent="epsHbpwaY9G1va5y-a78-4" vertex="1">
          <mxGeometry x="170.5" y="314" width="70" height="20" as="geometry" />
        </mxCell>
        <mxCell id="epsHbpwaY9G1va5y-a78-26" value="Food &amp;amp; Reviews" style="strokeWidth=1;shadow=0;dashed=0;align=center;html=1;shape=mxgraph.mockup.forms.rrect;rSize=5;strokeColor=none;fontColor=#ffffff;fillColor=#66bbff;fontSize=16;fontStyle=1;" parent="epsHbpwaY9G1va5y-a78-4" vertex="1">
          <mxGeometry x="68.5" y="420" width="131.5" height="30" as="geometry" />
        </mxCell>
        <mxCell id="epsHbpwaY9G1va5y-a78-27" value="Un-Follow" style="strokeWidth=1;shadow=0;dashed=0;align=center;html=1;shape=mxgraph.mockup.forms.rrect;rSize=5;strokeColor=none;fontColor=#ffffff;fillColor=#66bbff;fontSize=16;fontStyle=1;" parent="epsHbpwaY9G1va5y-a78-4" vertex="1">
          <mxGeometry x="260" y="422" width="93.5" height="30" as="geometry" />
        </mxCell>
        <mxCell id="epsHbpwaY9G1va5y-a78-28" value="" style="verticalLabelPosition=bottom;shadow=0;dashed=0;align=center;html=1;verticalAlign=top;strokeWidth=1;shape=mxgraph.mockup.graphics.simpleIcon;strokeColor=#999999;" parent="epsHbpwaY9G1va5y-a78-4" vertex="1">
          <mxGeometry x="141" y="216" width="137.5" height="93" as="geometry" />
        </mxCell>
        <mxCell id="epsHbpwaY9G1va5y-a78-29" value="&lt;div&gt;&lt;b&gt;Type: Type of restaurant&lt;/b&gt;&lt;/div&gt;&lt;div&gt;&lt;b&gt;Location: Located at this spot&lt;/b&gt;&lt;/div&gt;&lt;div&gt;&lt;b&gt;Hours: The hours for this restaurant are&lt;/b&gt;&lt;/div&gt;&lt;div&gt;&lt;b&gt;Followers: Follower count&lt;/b&gt;&lt;/div&gt;&lt;div&gt;&lt;b&gt;Average Review: 4.5 stars&lt;/b&gt;&lt;/div&gt;" style="strokeWidth=1;shadow=0;dashed=0;align=center;html=1;shape=mxgraph.mockup.forms.anchor;fontSize=12;fontColor=#666666;align=left;resizeWidth=1;spacingLeft=0;perimeterSpacing=5;" parent="epsHbpwaY9G1va5y-a78-4" vertex="1">
          <mxGeometry x="73.25" y="355" width="273" height="40" as="geometry" />
        </mxCell>
        <mxCell id="epsHbpwaY9G1va5y-a78-31" value="" style="strokeWidth=1;shadow=0;dashed=0;align=center;html=1;shape=mxgraph.mockup.forms.rrect;rSize=0;strokeColor=#999999;fontColor=#666666;align=left;spacingLeft=5;resizeWidth=1;" parent="epsHbpwaY9G1va5y-a78-4" vertex="1">
          <mxGeometry x="52.5" y="483" width="315" height="260" as="geometry" />
        </mxCell>
        <mxCell id="epsHbpwaY9G1va5y-a78-32" value="&lt;span style=&quot;font-size: 16px;&quot;&gt;Restaurant&lt;/span&gt;" style="strokeWidth=1;shadow=0;dashed=0;align=center;html=1;shape=mxgraph.mockup.forms.anchor;fontSize=12;fontColor=#666666;align=left;resizeWidth=1;spacingLeft=0;" parent="epsHbpwaY9G1va5y-a78-4" vertex="1">
          <mxGeometry x="170.5" y="594" width="70" height="20" as="geometry" />
        </mxCell>
        <mxCell id="epsHbpwaY9G1va5y-a78-34" value="Un-Follow" style="strokeWidth=1;shadow=0;dashed=0;align=center;html=1;shape=mxgraph.mockup.forms.rrect;rSize=5;strokeColor=none;fontColor=#ffffff;fillColor=#66bbff;fontSize=16;fontStyle=1;" parent="epsHbpwaY9G1va5y-a78-4" vertex="1">
          <mxGeometry x="260" y="702" width="93.5" height="30" as="geometry" />
        </mxCell>
        <mxCell id="epsHbpwaY9G1va5y-a78-35" value="" style="verticalLabelPosition=bottom;shadow=0;dashed=0;align=center;html=1;verticalAlign=top;strokeWidth=1;shape=mxgraph.mockup.graphics.simpleIcon;strokeColor=#999999;" parent="epsHbpwaY9G1va5y-a78-4" vertex="1">
          <mxGeometry x="141" y="496" width="137.5" height="93" as="geometry" />
        </mxCell>
        <mxCell id="epsHbpwaY9G1va5y-a78-36" value="&lt;div&gt;&lt;b&gt;Type: Type of restaurant&lt;/b&gt;&lt;/div&gt;&lt;div&gt;&lt;b&gt;Location: Located at this spot&lt;/b&gt;&lt;/div&gt;&lt;div&gt;&lt;b&gt;Hours: The hours for this restaurant are&lt;/b&gt;&lt;/div&gt;&lt;div&gt;&lt;b&gt;Followers: Follower count&lt;/b&gt;&lt;/div&gt;&lt;div&gt;&lt;b&gt;Average Review: 4.5 stars&lt;/b&gt;&lt;/div&gt;" style="strokeWidth=1;shadow=0;dashed=0;align=center;html=1;shape=mxgraph.mockup.forms.anchor;fontSize=12;fontColor=#666666;align=left;resizeWidth=1;spacingLeft=0;perimeterSpacing=5;" parent="epsHbpwaY9G1va5y-a78-4" vertex="1">
          <mxGeometry x="73.25" y="635" width="273" height="40" as="geometry" />
        </mxCell>
        <mxCell id="yZhVOJ1D_KPARZd-RdQb-1" value="Food &amp;amp; Reviews" style="strokeWidth=1;shadow=0;dashed=0;align=center;html=1;shape=mxgraph.mockup.forms.rrect;rSize=5;strokeColor=none;fontColor=#ffffff;fillColor=#66bbff;fontSize=16;fontStyle=1;" vertex="1" parent="epsHbpwaY9G1va5y-a78-4">
          <mxGeometry x="65" y="702" width="131.5" height="30" as="geometry" />
        </mxCell>
        <mxCell id="epsHbpwaY9G1va5y-a78-16" value="Standard User [User Follows Page]" style="text;strokeColor=none;fillColor=none;html=1;fontSize=24;fontStyle=1;verticalAlign=middle;align=center;" parent="1" vertex="1">
          <mxGeometry x="375" y="40" width="100" height="60" as="geometry" />
        </mxCell>
        <mxCell id="epsHbpwaY9G1va5y-a78-21" value="&lt;span style=&quot;font-size: 16px;&quot;&gt;[Restaurant List Cont.]&lt;/span&gt;" style="strokeWidth=1;shadow=0;dashed=0;align=center;html=1;shape=mxgraph.mockup.forms.anchor;fontSize=12;fontColor=#666666;align=left;resizeWidth=1;spacingLeft=0;" parent="1" vertex="1">
          <mxGeometry x="357.25" y="998" width="70" height="20" as="geometry" />
        </mxCell>
        <mxCell id="V1vc3sbserMTRBsRMMdp-1" value="User Account" style="strokeWidth=1;shadow=0;dashed=0;align=center;html=1;shape=mxgraph.mockup.forms.rrect;rSize=5;strokeColor=none;fontColor=#ffffff;fillColor=#66bbff;fontSize=16;fontStyle=1;" parent="1" vertex="1">
          <mxGeometry x="510" y="240" width="120" height="30" as="geometry" />
        </mxCell>
      </root>
    </mxGraphModel>
  </diagram>
</mxfile>
